<?xml version="1.0" encoding="UTF-8" standalone="no"?>
<svg
   xmlns:dc="http://purl.org/dc/elements/1.1/"
   xmlns:cc="http://creativecommons.org/ns#"
   xmlns:rdf="http://www.w3.org/1999/02/22-rdf-syntax-ns#"
   xmlns:svg="http://www.w3.org/2000/svg"
   xmlns="http://www.w3.org/2000/svg"
   width="210mm"
   height="297mm"
   viewBox="0 0 210 297"
   version="1.1"
   id="svg8">
  <defs
     id="defs2">
    <clipPath
       id="clipPath26"
       clipPathUnits="userSpaceOnUse">
      <path
         style="clip-rule:evenodd"
         id="path24"
         d="M 0,1.2207e-4 H 720 V 540.00012 H 0 Z" />
    </clipPath>
    <clipPath
       id="clipPath64"
       clipPathUnits="userSpaceOnUse">
      <path
         style="clip-rule:evenodd"
         id="path62"
         d="M 1.0729e-5,0 H 720.00001 V 540 H 1.0729e-5 Z" />
    </clipPath>
    <clipPath
       id="clipPath76"
       clipPathUnits="userSpaceOnUse">
      <path
         style="clip-rule:evenodd"
         id="path74"
         d="M 1.0729e-5,0 H 720.00001 V 540 H 1.0729e-5 Z" />
    </clipPath>
    <clipPath
       id="clipPath88"
       clipPathUnits="userSpaceOnUse">
      <path
         style="clip-rule:evenodd"
         id="path86"
         d="M 1.0729e-5,0 H 720.00001 V 540 H 1.0729e-5 Z" />
    </clipPath>
    <clipPath
       id="clipPath100"
       clipPathUnits="userSpaceOnUse">
      <path
         style="clip-rule:evenodd"
         id="path98"
         d="M 1.0729e-5,0 H 720.00001 V 540 H 1.0729e-5 Z" />
    </clipPath>
    <clipPath
       id="clipPath112"
       clipPathUnits="userSpaceOnUse">
      <path
         style="clip-rule:evenodd"
         id="path110"
         d="M 1.0729e-5,0 H 720.00001 V 540 H 1.0729e-5 Z" />
    </clipPath>
    <clipPath
       id="clipPath124"
       clipPathUnits="userSpaceOnUse">
      <path
         style="clip-rule:evenodd"
         id="path122"
         d="M 1.0729e-5,0 H 720.00001 V 540 H 1.0729e-5 Z" />
    </clipPath>
    <clipPath
       id="clipPath136"
       clipPathUnits="userSpaceOnUse">
      <path
         style="clip-rule:evenodd"
         id="path134"
         d="M 1.0729e-5,0 H 720.00001 V 540 H 1.0729e-5 Z" />
    </clipPath>
    <clipPath
       id="clipPath148"
       clipPathUnits="userSpaceOnUse">
      <path
         style="clip-rule:evenodd"
         id="path146"
         d="M 1.0729e-5,0 H 720.00001 V 540 H 1.0729e-5 Z" />
    </clipPath>
    <clipPath
       id="clipPath160"
       clipPathUnits="userSpaceOnUse">
      <path
         style="clip-rule:evenodd"
         id="path158"
         d="M 1.0729e-5,0 H 720.00001 V 540 H 1.0729e-5 Z" />
    </clipPath>
    <clipPath
       id="clipPath172"
       clipPathUnits="userSpaceOnUse">
      <path
         style="clip-rule:evenodd"
         id="path170"
         d="M 1.0729e-5,0 H 720.00001 V 540 H 1.0729e-5 Z" />
    </clipPath>
    <clipPath
       id="clipPath184"
       clipPathUnits="userSpaceOnUse">
      <path
         style="clip-rule:evenodd"
         id="path182"
         d="M 1.0729e-5,0 H 720.00001 V 540 H 1.0729e-5 Z" />
    </clipPath>
    <clipPath
       id="clipPath196"
       clipPathUnits="userSpaceOnUse">
      <path
         style="clip-rule:evenodd"
         id="path194"
         d="M 1.0729e-5,0 H 720.00001 V 540 H 1.0729e-5 Z" />
    </clipPath>
    <clipPath
       id="clipPath123"
       clipPathUnits="userSpaceOnUse">
      <path
         id="path121"
         d="M 0,0 H 240 V 240 H 0 Z" />
    </clipPath>
    <clipPath
       id="clipPath137"
       clipPathUnits="userSpaceOnUse">
      <path
         id="path135"
         d="M 0,0 H 240 V 240 H 0 Z" />
    </clipPath>
    <clipPath
       id="clipPath177"
       clipPathUnits="userSpaceOnUse">
      <path
         id="path175"
         d="M 0,0 H 240 V 240 H 0 Z" />
    </clipPath>
    <clipPath
       id="clipPath835"
       clipPathUnits="userSpaceOnUse">
      <path
         id="path833"
         d="M 0,0 H 158 V 86 H 0 Z" />
    </clipPath>
    <radialGradient
       id="radialGradient859"
       spreadMethod="pad"
       gradientTransform="matrix(19.209,0,0,-19.209,44.999999,41.999984)"
       gradientUnits="userSpaceOnUse"
       r="1"
       cy="0"
       cx="0"
       fy="0"
       fx="0">
      <stop
         id="stop853"
         offset="0"
         style="stop-opacity:1;stop-color:#212121" />
      <stop
         id="stop855"
         offset="0.5"
         style="stop-opacity:1;stop-color:#343434" />
      <stop
         id="stop857"
         offset="1"
         style="stop-opacity:1;stop-color:#404040" />
    </radialGradient>
    <clipPath
       id="clipPath877"
       clipPathUnits="userSpaceOnUse">
      <path
         id="path875"
         d="M 0,0 H 158 V 86 H 0 Z" />
    </clipPath>
    <clipPath
       id="clipPath891"
       clipPathUnits="userSpaceOnUse">
      <path
         id="path889"
         d="M 0,0 H 158 V 86 H 0 Z" />
    </clipPath>
  </defs>
  <metadata
     id="metadata5">
    <rdf:RDF>
      <cc:Work
         rdf:about="">
        <dc:format>image/svg+xml</dc:format>
        <dc:type
           rdf:resource="http://purl.org/dc/dcmitype/StillImage" />
        <dc:title></dc:title>
      </cc:Work>
    </rdf:RDF>
  </metadata>
  <g
     id="layer1">
    <path
       d="m 159.54511,60.511861 c 0,0 0.0844,6.523931 -0.7729,10.245736 -0.85725,3.721806 -1.28411,6.096 -4.43795,8.09625 -3.15383,2.00025 -9.49677,3.393722 -14.48152,3.90525 -4.98475,0.515056 -3.30906,-0.790223 -15.41639,-0.836083 l -57.227612,0.557389 c 0,0 -17.28611,1.721555 -23.125993,0.560916 -5.839531,-1.164166 -9.415286,-3.340805 -11.912953,-7.538861 -2.497314,-4.198055 -3.071636,-9.896753 -3.071636,-17.293165 0,-7.396413 0.629355,-12.982223 3.137253,-17.159112 2.50825,-4.176888 6.072363,-6.374694 11.910835,-7.53886 5.839884,-1.160639 23.118939,0.560916 23.118939,0.560916 l 57.220557,0.557389 c 12.1038,-0.04586 10.43164,-1.351139 15.41286,-0.836083 4.98122,0.511527 11.32769,1.905 14.478,3.90525 3.15383,2.00025 3.58422,4.374444 4.43794,8.096249 0.6189,3.376819 0.68846,6.852603 0.70692,10.299222 z"
       stroke-opacity="1"
       stroke-width="0.71966666"
       fill="none"
       stroke="#000000"
       style="stroke-linecap:butt;stroke-linejoin:round;stroke-miterlimit:10;stroke-dasharray:none"
       id="car_outline" />
    <path
       d="m 32.434345,48.014015 c 1.51765,-1.252361 10.155767,-10.918472 10.973153,-12.544778 0.817033,-1.626305 -4.55295,1.534583 -6.070247,2.786945 -1.51765,1.255888 -2.334684,3.252611 -3.0353,4.741333 -0.700264,1.485194 -3.385256,6.272388 -1.867606,5.0165 z"
       stroke-opacity="1"
       stroke-width="0.71966666"
       stroke="#000000"
       fill="#f4eed7"
       style="stroke-linecap:butt;stroke-linejoin:round;stroke-miterlimit:10;stroke-dasharray:none"
       id="A-right" />
    <path
       d="m 74.013792,34.08282 c 0.85725,-1.721555 1.7145,-3.446638 2.575277,-4.190999 0.85725,-0.744362 2.377723,-0.931334 2.57175,-0.278695 0.197556,0.652639 -1.404055,4.191 -1.404055,4.191 l -0.112212,0.27167"
       stroke-opacity="1"
       stroke-width="0.71966666"
       stroke="#000000"
       fill="none"
       style="stroke-linecap:butt;stroke-linejoin:round;stroke-miterlimit:10;stroke-dasharray:none"
       id="B-right" />
    <path
       d="m 152.27754,37.123765 c -0.97014,-0.141111 -3.10444,-0.328083 -2.794,0.557389 0.31044,0.881944 3.25967,3.023305 4.65667,4.744861 1.397,1.721555 3.18558,5.210527 3.72886,5.584472 0.54328,0.370417 -0.0388,-1.767417 -0.46567,-3.351389 -0.42686,-1.580444 -1.28411,-4.931833 -2.09903,-6.141861 -0.81491,-1.210028 -2.05669,-1.255889 -3.02683,-1.393472 z"
       stroke-opacity="1"
       fill="#d40000"
       stroke-width="0.71966666"
       stroke="#000000"
       style="stroke-linecap:butt;stroke-linejoin:round;stroke-miterlimit:10;stroke-dasharray:none"
       id="C-right" />
    <path
       d="m 85.857171,70.535347 c 1.113049,2.755359 1.636728,1.789363 -0.903741,3.319639 -2.543058,1.531835 -11.571111,4.935361 -14.492111,5.863167 -2.920999,0.931333 -2.172485,1.390426 -3.037416,-0.278695 -0.917177,-1.769945 -2.133046,-5.820707 -2.753935,-9.45079 -0.624417,-3.626555 -0.946699,-7.860015 -0.943176,-11.712348 0.08114,-3.845278 0.02545,-6.509002 0.646339,-10.132029 0.624417,-3.623028 2.115911,-9.411859 3.124855,-10.992304 1.012472,-1.576917 0.119945,-1.2065 3.033889,-0.278694 2.913944,0.931333 11.90625,4.346222 14.453305,5.852583 2.547056,1.506361 2.265082,0.951176 1.254251,3.182055 -1.076472,2.375747 -2.382586,8.119789 -2.472594,12.168692 -0.104118,4.68361 1.044435,9.869595 2.090334,12.458724 z"
       stroke-opacity="1"
       stroke-width="0.71966666"
       stroke="#000000"
       fill="none"
       style="stroke-linecap:butt;stroke-linejoin:round;stroke-miterlimit:10;stroke-dasharray:none"
       id="front-window" />
    <path
       d="m 32.392012,68.538625 c 1.51765,1.252361 10.155766,10.918472 10.973153,12.544778 0.817033,1.626305 -4.55295,-1.534584 -6.070248,-2.786945 -1.51765,-1.255888 -2.334683,-3.252611 -3.0353,-4.741333 -0.700263,-1.485194 -3.385255,-6.272389 -1.867605,-5.0165 z"
       stroke-opacity="1"
       stroke-width="0.71966666"
       stroke="#000000"
       fill="#f4eed7"
       style="stroke-linecap:butt;stroke-linejoin:round;stroke-miterlimit:10;stroke-dasharray:none"
       id="A-left" />
    <path
       d="m 73.971458,82.512153 c 0.85725,1.707444 1.7145,3.414889 2.575278,4.155722 0.85725,0.737305 2.377722,0.92075 2.57175,0.275167 0.197556,-0.645584 -1.404056,-4.155723 -1.404056,-4.155723 l -0.141741,-0.318917"
       stroke-opacity="1"
       stroke-width="0.71966666"
       stroke="#000000"
       fill="none"
       style="stroke-linecap:butt;stroke-linejoin:round;stroke-miterlimit:10;stroke-dasharray:none"
       id="B-left" />
    <path
       d="m 152.20698,79.428875 c -0.97719,0.141111 -3.12208,0.328083 -2.80811,-0.557389 0.31045,-0.881944 3.27731,-3.023305 4.68136,-4.744861 1.40406,-1.721555 3.1997,-5.210527 3.74298,-5.584472 0.5468,-0.370417 -0.0388,1.767417 -0.46567,3.351389 -0.43039,1.580444 -1.28764,4.931833 -2.10961,6.141861 -0.81845,1.210028 -2.06728,1.255889 -3.04095,1.393472 z"
       stroke-opacity="1"
       stroke-width="0.71966666"
       stroke="#000000"
       fill="#d40000"
       style="stroke-linecap:butt;stroke-linejoin:round;stroke-miterlimit:10;stroke-dasharray:none"
       id="C-left" />
    <g
       id="g58"
       transform="matrix(0.35277777,0,0,-0.35277777,11.339293,207.79765)">
      <g
         id="g60"
         clip-path="url(#clipPath64)">
        <text
           transform="matrix(1,0,0,-1,49.2,501.6)"
           style="font-variant:normal;font-weight:normal;font-size:18px;font-family:Calibri;-inkscape-font-specification:Calibri;writing-mode:lr-tb;fill:#000000;fill-opacity:1;fill-rule:nonzero;stroke:none"
           id="text68">
          <tspan
             x="0"
             y="0"
             id="tspan66">A</tspan>
        </text>
      </g>
    </g>
    <g
       id="g70"
       transform="matrix(0.35277777,0,0,-0.35277777,11.339293,207.79765)">
      <g
         id="g72"
         clip-path="url(#clipPath76)">
        <text
           transform="matrix(1,0,0,-1,59.64,497.16)"
           style="font-variant:normal;font-weight:normal;font-size:12px;font-family:Calibri;-inkscape-font-specification:Calibri;writing-mode:lr-tb;fill:#000000;fill-opacity:1;fill-rule:nonzero;stroke:none"
           id="text80">
          <tspan
             x="0 4.1880002 6.948 12.6 18.84"
             y="0"
             id="tspan78">right</tspan>
        </text>
      </g>
    </g>
    <g
       id="g82"
       transform="matrix(0.35277777,0,0,-0.35277777,11.339293,207.79765)">
      <g
         id="g84"
         clip-path="url(#clipPath88)">
        <text
           transform="matrix(1,0,0,-1,206.76,501.6)"
           style="font-variant:normal;font-weight:normal;font-size:18px;font-family:Calibri;-inkscape-font-specification:Calibri;writing-mode:lr-tb;fill:#000000;fill-opacity:1;fill-rule:nonzero;stroke:none"
           id="text92">
          <tspan
             x="0"
             y="0"
             id="tspan90">B</tspan>
        </text>
      </g>
    </g>
    <g
       id="g94"
       transform="matrix(0.35277777,0,0,-0.35277777,11.339293,207.79765)">
      <g
         id="g96"
         clip-path="url(#clipPath100)">
        <text
           transform="matrix(1,0,0,-1,216.6,497.16)"
           style="font-variant:normal;font-weight:normal;font-size:12px;font-family:Calibri;-inkscape-font-specification:Calibri;writing-mode:lr-tb;fill:#000000;fill-opacity:1;fill-rule:nonzero;stroke:none"
           id="text104">
          <tspan
             x="0 4.1880002 6.948 12.6 18.84"
             y="0"
             id="tspan102">right</tspan>
        </text>
      </g>
    </g>
    <g
       id="g106"
       transform="matrix(0.35277777,0,0,-0.35277777,11.339293,207.79765)">
      <g
         id="g108"
         clip-path="url(#clipPath112)">
        <text
           transform="matrix(1,0,0,-1,403.27,501.6)"
           style="font-variant:normal;font-weight:normal;font-size:18px;font-family:Calibri;-inkscape-font-specification:Calibri;writing-mode:lr-tb;fill:#000000;fill-opacity:1;fill-rule:nonzero;stroke:none"
           id="text116">
          <tspan
             x="0"
             y="0"
             id="tspan114">C</tspan>
        </text>
      </g>
    </g>
    <g
       id="g118"
       transform="matrix(0.35277777,0,0,-0.35277777,11.339293,207.79765)">
      <g
         id="g120"
         clip-path="url(#clipPath124)">
        <text
           transform="matrix(1,0,0,-1,412.87,497.16)"
           style="font-variant:normal;font-weight:normal;font-size:12px;font-family:Calibri;-inkscape-font-specification:Calibri;writing-mode:lr-tb;fill:#000000;fill-opacity:1;fill-rule:nonzero;stroke:none"
           id="text128">
          <tspan
             x="0 4.1880002 6.948 12.6 18.84"
             y="0"
             id="tspan126">right</tspan>
        </text>
      </g>
    </g>
    <g
       id="g130"
       transform="matrix(0.35277777,0,0,-0.35277777,11.339293,207.79765)">
      <g
         id="g132"
         clip-path="url(#clipPath136)">
        <text
           transform="matrix(1,0,0,-1,49.2,333.55)"
           style="font-variant:normal;font-weight:normal;font-size:18px;font-family:Calibri;-inkscape-font-specification:Calibri;writing-mode:lr-tb;fill:#000000;fill-opacity:1;fill-rule:nonzero;stroke:none"
           id="text140">
          <tspan
             x="0"
             y="0"
             id="tspan138">A</tspan>
        </text>
      </g>
    </g>
    <g
       id="g142"
       transform="matrix(0.35277777,0,0,-0.35277777,11.339293,207.79765)">
      <g
         id="g144"
         clip-path="url(#clipPath148)">
        <text
           transform="matrix(1,0,0,-1,59.64,329.11)"
           style="font-variant:normal;font-weight:normal;font-size:12px;font-family:Calibri;-inkscape-font-specification:Calibri;writing-mode:lr-tb;fill:#000000;fill-opacity:1;fill-rule:nonzero;stroke:none"
           id="text152">
          <tspan
             x="0 2.76 8.6400003 12.348"
             y="0"
             id="tspan150">left</tspan>
        </text>
      </g>
    </g>
    <g
       id="g154"
       transform="matrix(0.35277777,0,0,-0.35277777,11.339293,207.79765)">
      <g
         id="g156"
         clip-path="url(#clipPath160)">
        <text
           transform="matrix(1,0,0,-1,206.76,333.55)"
           style="font-variant:normal;font-weight:normal;font-size:18px;font-family:Calibri;-inkscape-font-specification:Calibri;writing-mode:lr-tb;fill:#000000;fill-opacity:1;fill-rule:nonzero;stroke:none"
           id="text164">
          <tspan
             x="0"
             y="0"
             id="tspan162">B</tspan>
        </text>
      </g>
    </g>
    <g
       id="g166"
       transform="matrix(0.35277777,0,0,-0.35277777,11.339293,207.79765)">
      <g
         id="g168"
         clip-path="url(#clipPath172)">
        <text
           transform="matrix(1,0,0,-1,216.6,329.11)"
           style="font-variant:normal;font-weight:normal;font-size:12px;font-family:Calibri;-inkscape-font-specification:Calibri;writing-mode:lr-tb;fill:#000000;fill-opacity:1;fill-rule:nonzero;stroke:none"
           id="text176">
          <tspan
             x="0 2.76 8.6400003 12.348"
             y="0"
             id="tspan174">left</tspan>
        </text>
      </g>
    </g>
    <g
       id="g178"
       transform="matrix(0.35277777,0,0,-0.35277777,11.339293,207.79765)">
      <g
         id="g180"
         clip-path="url(#clipPath184)">
        <text
           transform="matrix(1,0,0,-1,403.27,333.55)"
           style="font-variant:normal;font-weight:normal;font-size:18px;font-family:Calibri;-inkscape-font-specification:Calibri;writing-mode:lr-tb;fill:#000000;fill-opacity:1;fill-rule:nonzero;stroke:none"
           id="text188">
          <tspan
             x="0"
             y="0"
             id="tspan186">C</tspan>
        </text>
      </g>
    </g>
    <g
       id="g190"
       transform="matrix(0.35277777,0,0,-0.35277777,11.339293,207.79765)">
      <g
         id="g192"
         clip-path="url(#clipPath196)">
        <text
           transform="matrix(1,0,0,-1,412.87,329.11)"
           style="font-variant:normal;font-weight:normal;font-size:12px;font-family:Calibri;-inkscape-font-specification:Calibri;writing-mode:lr-tb;fill:#000000;fill-opacity:1;fill-rule:nonzero;stroke:none"
           id="text200">
          <tspan
             x="0 2.76 8.6400003 12.348"
             y="0"
             id="tspan198">left</tspan>
        </text>
      </g>
    </g>
    <path
       d="m 124.25993,44.105237 c -0.2152,-1.541639 0.47625,-1.192389 2.00025,-1.513417 l 13.88533,-2.395361 c 1.21709,-0.09172 1.50636,-0.257528 1.76036,1.051278 0.25753,1.312333 2.46831,7.96232 2.54353,16.774583 -0.16114,8.860392 -2.28953,15.46225 -2.54353,16.774583 -0.25752,1.308805 -0.5468,1.142998 -1.76741,1.051278 L 126.24607,73.45282 c -1.524,-0.321028 -2.15195,-0.299861 -2.00378,-1.513417 0.14817,-1.213556 1.54683,-6.248024 1.79192,-13.398878 0.23996,-7.001251 -1.55909,-12.890121 -1.77428,-14.435288 z"
       stroke-opacity="1"
       stroke-width="0.71966666"
       fill="none"
       stroke="#000000"
       style="stroke-linecap:butt;stroke-linejoin:round;stroke-miterlimit:10;stroke-dasharray:none"
       id="back-window" />
    <path
       fill="#d40000"
       fill-opacity="0.1"
       stroke-width="0.56499994"
       style="stroke:#000006;stroke-miterlimit:4;stroke-dasharray:none;stroke-opacity:1"
       d="m 124.18415,50.382077 c 0.0343,-0.890241 1.29942,-0.98003 1.39703,-0.09449 0.47184,4.280429 0.37231,10.148768 -0.0472,15.042017 -0.0761,0.887643 -1.33149,0.843466 -1.34978,-0.04725 -0.10434,-5.082237 -0.13775,-11.32143 0,-14.900276 z"
       id="D-centre" />
    <g
       transform="matrix(0.35277777,0,0,-0.35277777,-24.041971,236.36781)"
       id="g910">
      <g
         clip-path="url(#clipPath112)"
         id="g908">
        <text
           id="text906"
           style="font-variant:normal;font-weight:normal;font-size:18px;font-family:Calibri;-inkscape-font-specification:Calibri;writing-mode:lr-tb;fill:#000000;fill-opacity:1;fill-rule:nonzero;stroke:none"
           transform="matrix(1,0,0,-1,403.27,501.6)">
          <tspan
             id="tspan904"
             y="0"
             x="0">D</tspan>
        </text>
      </g>
    </g>
  </g>
  <g
     transform="matrix(1.7238627,0,0,1.8327494,-54.696392,-97.312136)"
     id="g129">
    <g
       transform="matrix(0.10589502,0,0,0.11178956,108.38127,114.85035)"
       id="warningLightOuter">
      <g
         id="g39">
        <g
           id="g41">
          <path
             id="warningLight"
             fill-opacity="1"
             style="fill:#4f81bd;fill-rule:evenodd;stroke:#385d8a;stroke-width:2.03999996;stroke-linecap:butt;stroke-linejoin:round;stroke-miterlimit:10;stroke-dasharray:none;stroke-opacity:1"
             d="m 1.02,11.02 c 0,-5.52 4.48,-10 10,-10 h 94 c 5.519,0 10,4.48 10,10 v 40 c 0,5.519 -4.481,10 -10,10 h -94 c -5.52,0 -10,-4.481 -10,-10 z" />
        </g>
        <g
           id="g45">
          <path
             id="path47"
             style="fill:#4f81bd;fill-opacity:0.1;fill-rule:evenodd;stroke:#ff0000;stroke-width:2.03999996;stroke-linecap:butt;stroke-linejoin:round;stroke-miterlimit:10;stroke-dasharray:none;stroke-opacity:1"
             d="m 37.02,49.02 21,-36 21,36 z" />
        </g>
        <g
           id="g49">
          <path
             id="path51"
             style="fill:#4f81bd;fill-opacity:0.2;fill-rule:evenodd;stroke:#ff0000;stroke-width:2.03999996;stroke-linecap:butt;stroke-linejoin:round;stroke-miterlimit:10;stroke-dasharray:none;stroke-opacity:1"
             d="m 43.02,45.539 15,-25.68 15,25.68 z" />
        </g>
      </g>
    </g>
  </g>
  <g
     transform="translate(-34.269582,39.201651)"
     id="layer1-2">
    <g
       transform="matrix(0.35277777,0,0,0.35277777,55.288846,63.501609)"
       id="g823">
      <g
         id="g825">
        <g
           id="g827">
          <g
             id="g829">
            <g
               clip-path="url(#clipPath835)"
               id="g831">
              <g
                 id="g837">
                <path
                   id="lever"
                   style="fill:#595959;fill-opacity:1;fill-rule:evenodd;stroke:none"
                   d="m 90.738,47.328 67.242,12.953 -0.742,3.84 L 90,51.172 Z" />
              </g>
            </g>
          </g>
        </g>
        <path
           id="lever-holder"
           style="fill:#7f7f7f;fill-opacity:1;fill-rule:evenodd;stroke:none"
           d="m 57.602,30.238 39.839,15.672 -0.41,9.891 -38.672,-2.84 z" />
        <g
           id="g843">
          <g
             id="g845">
            <g
               id="g851">
              <path
                 id="rectangle"
                 style="fill:url(#radialGradient859);fill-rule:evenodd;stroke:none"
                 d="m 30,34 c 0,-2.211 1.789,-4 4,-4 h 22 c 2.211,0 4,1.789 4,4 v 16 c 0,2.211 -1.789,4 -4,4 H 34 c -2.211,0 -4,-1.789 -4,-4 z" />
            </g>
          </g>
        </g>
        <path
           id="shadow"
           style="fill:#595959;fill-opacity:1;fill-rule:evenodd;stroke:none"
           d="M 61.84,52.801 98.16,54.82 89.949,56.762 32.16,53.609 Z" />
        <path
           id="PitmanDownward"
           fill-opacity="0.1"
           fill="#95b3d7"
           style="fill-rule:evenodd;stroke:none"
           d="m 40.559,78.898 h 3.152 V 63.719 h 6.301 v 15.179 h 3.148 l -6.301,6.301 z" />
        <path
           id="PitmanUpward"
           style="fill-rule:evenodd;stroke:none"
           fill-opacity="1"
           fill="#95b3d7"
           d="m 41.398,6.301 h 3.153 V 21.48 h 6.301 V 6.301 H 54 L 47.699,0 Z" />
        <g
           id="g869">
          <g
             clip-path="url(#clipPath877)"
             id="g873">
            <path
               id="PitmanLeft"
               visibility="hidden"
               fill-opacity="0.1"
               fill="#95b3d7"
               style="fill-rule:evenodd;stroke:none"
               d="m 87.18,36.359 v 3.153 H 72 v 6.297 h 15.18 v 3.152 l 6.3,-6.301 z" />
          </g>
        </g>
        <g
           clip-path="url(#clipPath891)"
           id="g874">
          <path
             id="PitmanRight"
             visibility="hidden"
             style="fill-rule:evenodd;stroke:none"
             fill-opacity="0.1"
             fill="#95b3d7"
             d="m 6.301,36.359 v 3.153 H 21.48 v 6.297 H 6.301 v 3.152 L 0,42.66 Z" />
        </g>
      </g>
    </g>
    <g
       id="circled-2"
       transform="matrix(0.50000001,0,0,0.50000001,37.311567,17.458633)">
      <circle
         r="4.4767647"
         cy="86.391617"
         cx="69.623711"
         id="circle-PitmanUpward"
         stroke-opacity="1"
         fill="none"
         stroke-width="0.56499994"
         style="fill-opacity:1;stroke:#95b3d7;stroke-miterlimit:4;stroke-dasharray:none" />
      <text
         id="text879"
         y="88.663406"
         x="67.819641"
         style="font-style:normal;font-variant:normal;font-weight:normal;font-stretch:normal;font-size:10.58333302px;line-height:1.25;font-family:AIGDT;-inkscape-font-specification:AIGDT;letter-spacing:0px;word-spacing:0px;fill:#95b3d7;fill-opacity:1;stroke:none;stroke-width:0.26458332"
         xml:space="preserve"><tspan
           style="font-style:normal;font-variant:normal;font-weight:normal;font-stretch:normal;font-size:7.05555534px;font-family:'Fira Sans';-inkscape-font-specification:'Fira Sans';fill:#95b3d7;fill-opacity:1;stroke-width:0.26458332"
           y="88.663406"
           x="67.819641"
           id="tspan877">2</tspan><tspan
           id="tspan881"
           style="font-style:normal;font-variant:normal;font-weight:normal;font-stretch:normal;font-family:AIGDT;-inkscape-font-specification:AIGDT;fill:#95b3d7;fill-opacity:1;stroke-width:0.26458332"
           y="101.89257"
           x="67.819641" /></text>
    </g>
    <g
       id="circled-1"
       visibility="hidden"
       transform="matrix(0.50000001,0,0,0.50000001,56.399491,35.416294)">
      <circle
         style="fill:none;fill-opacity:0.5;stroke:#95b3d7;stroke-miterlimit:4;stroke-dasharray:none;stroke-opacity:1"
         stroke-width="0.56499994"
         id="circle885"
         cx="69.623711"
         cy="86.391617"
         r="4.4767647" />
      <text
         xml:space="preserve"
         style="font-style:normal;font-variant:normal;font-weight:normal;font-stretch:normal;font-size:10.58333302px;line-height:1.25;font-family:AIGDT;-inkscape-font-specification:AIGDT;letter-spacing:0px;word-spacing:0px;fill:#95b3d7;fill-opacity:1;stroke:none;stroke-width:0.26458332"
         x="67.819641"
         y="88.663406"
         id="text891"><tspan
           id="tspan887"
           x="67.819641"
           y="88.663406"
           style="font-style:normal;font-variant:normal;font-weight:normal;font-stretch:normal;font-size:7.05555534px;font-family:'Fira Sans';-inkscape-font-specification:'Fira Sans';fill:#95b3d7;fill-opacity:1;stroke-width:0.26458332">1</tspan><tspan
           x="67.819641"
           y="101.89257"
           style="font-style:normal;font-variant:normal;font-weight:normal;font-stretch:normal;font-family:AIGDT;-inkscape-font-specification:AIGDT;fill:#95b3d7;fill-opacity:1;stroke-width:0.26458332"
           id="tspan889" /></text>
    </g>
    <g
       transform="matrix(0.50000001,0,0,0.50000001,37.010396,53.209273)"
       id="circled-3">
      <circle
         style="fill-opacity:1;stroke:#95b3d7;stroke-miterlimit:4;stroke-dasharray:none"
         stroke-opacity="1"
         stroke-width="0.56499994"
         fill="none"
         id="circle-PitmanDownward"
         cx="69.623711"
         cy="86.391617"
         r="4.4767647" />
      <text
         xml:space="preserve"
         style="font-style:normal;font-variant:normal;font-weight:normal;font-stretch:normal;font-size:10.58333302px;line-height:1.25;font-family:AIGDT;-inkscape-font-specification:AIGDT;letter-spacing:0px;word-spacing:0px;fill:#95b3d7;fill-opacity:1;stroke:none;stroke-width:0.26458332"
         x="67.819641"
         y="88.663406"
         id="text901"><tspan
           id="tspan897"
           x="67.819641"
           y="88.663406"
           style="font-style:normal;font-variant:normal;font-weight:normal;font-stretch:normal;font-size:7.05555534px;font-family:'Fira Sans';-inkscape-font-specification:'Fira Sans';fill:#95b3d7;fill-opacity:1;stroke-width:0.26458332">3</tspan><tspan
           x="67.819641"
           y="101.89257"
           style="font-style:normal;font-variant:normal;font-weight:normal;font-stretch:normal;font-family:AIGDT;-inkscape-font-specification:AIGDT;fill:#95b3d7;fill-opacity:1;stroke-width:0.26458332"
           id="tspan899" /></text>
    </g>
    <g
       id="circled-4"
       visibility="hidden"
       transform="matrix(0.50000001,0,0,0.50000001,17.399857,35.285018)">
      <circle
         r="4.4767647"
         cy="86.391617"
         cx="69.623711"
         id="circle905"
         stroke-width="0.56499994"
         style="fill:none;fill-opacity:0.5;stroke:#95b3d7;stroke-miterlimit:4;stroke-dasharray:none;stroke-opacity:1" />
      <text
         id="text911"
         y="88.663406"
         x="67.819641"
         style="font-style:normal;font-variant:normal;font-weight:normal;font-stretch:normal;font-size:10.58333302px;line-height:1.25;font-family:AIGDT;-inkscape-font-specification:AIGDT;letter-spacing:0px;word-spacing:0px;fill:#95b3d7;fill-opacity:1;stroke:none;stroke-width:0.26458332"
         xml:space="preserve"><tspan
           style="font-style:normal;font-variant:normal;font-weight:normal;font-stretch:normal;font-size:7.05555534px;font-family:'Fira Sans';-inkscape-font-specification:'Fira Sans';fill:#95b3d7;fill-opacity:1;stroke-width:0.26458332"
           y="88.663406"
           x="67.819641"
           id="tspan907">4</tspan><tspan
           id="tspan909"
           style="font-style:normal;font-variant:normal;font-weight:normal;font-stretch:normal;font-family:AIGDT;-inkscape-font-specification:AIGDT;fill:#95b3d7;fill-opacity:1;stroke-width:0.26458332"
           y="101.89257"
           x="67.819641" /></text>
    </g>
  </g>
  <g
     id="g1214"
     transform="matrix(0.17602011,0,0,0.17602011,90.631641,110.63546)">
    <g
       id="ignition-layer"
       transform="matrix(1.1911573,0,0,1.1647802,-10.124837,-9.9006317)">
      <g
         id="ignition">
        <circle
           cx="50"
           cy="50"
           r="40"
           id="circle1890"
           style="fill:#808080;stroke:#808080;stroke-width:3" />
        <ellipse
           ry="24.259792"
           rx="23.803005"
           cx="50"
           cy="50"
           id="circle1892"
           style="fill:#494949;stroke:#494949;stroke-width:2.40303135" />
        <rect
           y="34.322033"
           x="43.220341"
           height="30.084745"
           width="13.559322"
           id="rect6208"
           style="fill:#000000;fill-opacity:1" />
        <text
           transform="matrix(-0.38445029,0.94405083,-0.90270348,-0.3844503,0,0)"
           id="text6917"
           y="-100.88259"
           x="19.913101"
           style="font-style:normal;font-variant:normal;font-weight:normal;font-stretch:normal;font-size:5.33333349px;line-height:1.25;font-family:sans-serif;-inkscape-font-specification:'sans-serif, Normal';font-variant-ligatures:normal;font-variant-caps:normal;font-variant-numeric:normal;font-feature-settings:normal;text-align:center;letter-spacing:0px;word-spacing:0px;writing-mode:lr-tb;text-anchor:middle;fill-opacity:1;stroke:none"
           xml:space="preserve"><tspan
             y="-100.88259"
             x="19.913101"
             id="engine-started-text"
             fill="#ffffff">START</tspan></text>
        <text
           transform="matrix(0.38879411,0.94218856,-0.90092278,0.38879412,0,0)"
           id="text6917-7"
           y="-63.434811"
           x="63.698452"
           style="font-style:normal;font-variant:normal;font-weight:normal;font-stretch:normal;font-size:5.33333349px;line-height:1.25;font-family:sans-serif;-inkscape-font-specification:'sans-serif, Normal';font-variant-ligatures:normal;font-variant-caps:normal;font-variant-numeric:normal;font-feature-settings:normal;text-align:center;letter-spacing:0px;word-spacing:0px;writing-mode:lr-tb;text-anchor:middle;fill-opacity:1;stroke:none;stroke-width:1"
           xml:space="preserve"><tspan
             y="-63.434811"
             x="63.698452"
             id="key-on-text"
             fill="#ffffff"
             style="stroke-width:1">ON</tspan></text>
        <text
           transform="matrix(0.88720363,0.47182619,-0.45116124,0.88720367,0,0)"
           id="text6917-5"
           y="-14.083524"
           x="69.099663"
           style="font-style:normal;font-variant:normal;font-weight:normal;font-stretch:normal;font-size:5.33333349px;line-height:1.25;font-family:sans-serif;-inkscape-font-specification:'sans-serif, Normal';font-variant-ligatures:normal;font-variant-caps:normal;font-variant-numeric:normal;font-feature-settings:normal;text-align:center;letter-spacing:0px;word-spacing:0px;writing-mode:lr-tb;text-anchor:middle;fill-opacity:1;stroke:none;stroke-width:1"
           xml:space="preserve"><tspan
             y="-14.083524"
             x="69.099663"
             fill="#ffffff"
             id="tspan6915-30"
             style="stroke-width:1">OFF</tspan></text>
      </g>
    </g>
    <g
       style="fill:#000000"
       id="key-inserted-layer"
       transform="matrix(1.2199409,0.0064397,-0.00604819,1.1457667,-11.070343,-10.130296)">
      <g
         fill="#000000"
         id="key-inserted"
         transform="matrix(1.1281738,0,0,1.2266666,14.93372,-16.073443)"
         visibility="hidden">
        <rect
           ry="5"
           rx="20"
           y="26.21656"
           x="19.678703"
           height="55.067017"
           width="22.676216"
           id="rect6890"
           style="fill:#000000;fill-opacity:1;stroke-width:0.83614457" />
        <rect
           ry="5.0076761"
           rx="33.472603"
           y="26.373297"
           x="28.167255"
           height="54.845291"
           width="5.7390733"
           id="rect6893"
           style="fill:#1a1a1a;fill-opacity:1;stroke-width:1.10055423" />
      </g>
    </g>
    <g
       style="visibility:hidden;fill:#000000"
       id="key-on-position-layer"
       transform="matrix(0.55545704,1.0861698,-1.0201291,0.5216844,72.66677,-32.920254)">
      <g
         fill="#4f81bd"
         visibility="hidden"
         id="key-on-position"
         transform="matrix(1.1281738,0,0,1.2266666,14.93372,-16.073443)">
        <rect
           ry="5"
           rx="20"
           y="26.21656"
           x="19.678703"
           height="55.067017"
           width="22.676216"
           id="rect6890-0"
           style="fill:#4f81bd;fill-opacity:1;stroke-width:0.83614457" />
        <rect
           ry="5.0076761"
           rx="33.472603"
           y="26.373297"
           x="28.167255"
           height="54.845291"
           width="5.7390733"
           id="rect6893-3"
           style="fill:#1a1a1a;fill-opacity:1;stroke-width:1.10055423" />
      </g>
    </g>
    <g
       style="visibility:hidden;fill:#000000"
       id="engine-started-layer"
       transform="matrix(0.01972985,1.2197984,-1.1456328,0.0185302,105.67114,-14.504551)">
      <g
         fill="#00cc00"
         visibility="hidden"
         id="engine-start"
         transform="matrix(1.0996363,0.26846651,-0.25748706,1.1956376,29.658811,-22.732608)">
        <rect
           ry="5"
           rx="20"
           y="26.21656"
           x="19.678703"
           height="55.067017"
           width="22.676216"
           id="rect6890-0-7"
           style="fill:#00cc00;fill-opacity:1;stroke-width:0.83614457" />
        <rect
           ry="5.0076761"
           rx="33.472603"
           y="26.373297"
           x="28.167255"
           height="54.845291"
           width="5.7390733"
           id="rect6893-3-2"
           style="fill:#1a1a1a;fill-opacity:1;stroke-width:1.10055423" />
      </g>
    </g>
  </g>
  <ellipse
     style="stroke-width:0.14762825"
     fill-opacity="1"
     fill="#95b3d7"
     ry="2.0"
     rx="2.0"
     cy="117.63323"
     cx="36.8"
     id="PitmanNeutral" />
     
        <text
           id="timer-txt"
           style="font-variant:normal;font-weight:normal;font-size:5px;font-family:'Fira Sans';writing-mode:lr-tb;fill:#000000;fill-opacity:1;fill-rule:nonzero;stroke:none">
          <tspan
             id="timer-text"
             y="120"
             x="112">Timer</tspan>
        </text>
</svg>
